<?xml version="1.0" standalone="no"?>
<!DOCTYPE svg PUBLIC "-//W3C//DTD SVG 20010904//EN"
 "http://www.w3.org/TR/2001/REC-SVG-20010904/DTD/svg10.dtd">
<svg version="1.0" xmlns="http://www.w3.org/2000/svg"
 width="512.000000pt" height="512.000000pt" viewBox="0 0 512.000000 512.000000"
 preserveAspectRatio="xMidYMid meet">
<metadata>
Created by potrace 1.14, written by Peter Selinger 2001-2017
</metadata>
<g transform="translate(0.000000,512.000000) scale(0.100000,-0.100000)"
fill="#000000" stroke="none">
<path d="M2332 5109 c-580 -52 -1129 -305 -1551 -714 -213 -207 -370 -420
-502 -680 -162 -321 -245 -625 -271 -993 -32 -447 61 -901 271 -1317 132 -260
289 -473 502 -680 376 -365 840 -600 1364 -690 406 -70 886 -26 1280 117 518
188 963 539 1273 1003 87 130 207 368 264 525 122 331 175 701 150 1042 -26
368 -109 672 -271 993 -132 260 -289 473 -502 680 -428 416 -970 663 -1569
715 -132 11 -303 11 -438 -1z m1462 -789 c-16 -74 -50 -156 -76 -186 -94 -107
-361 -232 -417 -195 -23 15 0 35 131 112 146 86 216 144 293 242 59 75 81 83
69 27z m-1099 -38 c269 -38 418 -52 642 -61 94 -3 175 -10 179 -14 14 -14 -20
-34 -101 -61 -164 -53 -216 -60 -430 -60 -224 0 -310 8 -670 62 -224 33 -271
37 -453 37 -111 0 -202 3 -202 6 0 14 97 68 156 88 99 33 176 40 424 37 197
-3 270 -8 455 -34z m1135 -120 c-33 -101 -94 -197 -180 -282 -178 -175 -377
-256 -690 -281 l-145 -12 3 -135 c7 -271 -40 -525 -228 -1237 -95 -361 -255
-874 -297 -958 -25 -49 -38 -28 -35 54 14 346 67 599 286 1380 149 531 181
665 201 847 l7 62 -40 0 -39 0 -6 -122 c-4 -96 -13 -153 -41 -260 -64 -246
-202 -648 -322 -941 -71 -174 -104 -215 -104 -130 0 105 73 489 130 683 41
139 89 362 136 629 22 128 24 155 13 162 -32 21 -43 5 -60 -92 -26 -149 -62
-285 -181 -679 -209 -696 -242 -866 -242 -1255 -1 -187 3 -261 17 -335 27
-144 64 -271 108 -372 22 -50 38 -93 35 -95 -7 -7 -45 37 -96 112 -162 239
-232 554 -208 936 19 288 109 680 276 1199 100 310 178 598 166 609 -5 4 -139
30 -299 56 -255 43 -309 49 -445 49 -85 1 -181 -3 -214 -7 -72 -11 -68 1 12
42 116 58 184 73 355 79 183 5 297 -5 587 -55 293 -50 380 -61 515 -69 260
-14 528 47 733 168 75 44 231 199 268 266 31 56 44 48 24 -16z m-1720 -52
c357 -54 820 -165 820 -198 0 -5 -33 -17 -72 -26 -64 -15 -96 -15 -258 -7
-102 6 -259 19 -350 30 -338 41 -733 37 -835 -8 -61 -27 -61 -6 1 55 76 77
245 145 404 164 107 12 148 11 290 -10z m38 -2537 c6 -27 20 -133 32 -238 23
-210 47 -328 92 -453 45 -123 21 -125 -70 -6 -80 106 -122 262 -122 457 0 83
14 234 25 268 11 35 33 20 43 -28z"/>
</g>
</svg>
