<!DOCTYPE svg PUBLIC "-//W3C//DTD SVG 1.1//EN" "http://www.w3.org/Graphics/SVG/1.1/DTD/svg11.dtd">
<svg xmlns="http://www.w3.org/2000/svg" xmlns:xlink="http://www.w3.org/1999/xlink" version="1.1" width="230px" height="75px" style="shape-rendering:geometricPrecision; text-rendering:geometricPrecision; image-rendering:optimizeQuality; fill-rule:evenodd; clip-rule:evenodd">
<g><path style="opacity:1" fill="#fefefe" d="M -0.5,-0.5 C 506.167,-0.5 1012.83,-0.5 1519.5,-0.5C 1519.5,26.5 1519.5,53.5 1519.5,80.5C 1012.83,80.5 506.167,80.5 -0.5,80.5C -0.5,53.5 -0.5,26.5 -0.5,-0.5 Z"/></g>
<g><path style="opacity:1" fill="#111111" d="M 36.5,56.5 C 37.8218,47.6582 37.8218,38.6582 36.5,29.5C 35.8933,29.6236 35.56,29.9569 35.5,30.5C 34.8333,30.1667 34.1667,29.8333 33.5,29.5C 33.1667,28.5 32.5,27.8333 31.5,27.5C 27.0244,25.6188 22.3577,25.1188 17.5,26C 12.2615,29.1374 12.2615,32.4707 17.5,36C 14.7019,36.5608 12.8686,35.3941 12,32.5C 11.5429,26.2619 14.3762,22.0952 20.5,20C 27.3642,18.3268 33.3642,19.8268 38.5,24.5C 40.3159,23.1851 41.9825,21.6851 43.5,20C 44.5,19.3333 45.5,19.3333 46.5,20C 44.3171,22.3504 41.9837,24.517 39.5,26.5C 38.3346,35.8155 38.1679,45.1489 39,54.5C 42,52.8333 44.3333,50.5 46,47.5C 46.4175,49.788 45.7509,51.788 44,53.5C 41.1667,56.3333 38.3333,59.1667 35.5,62C 25.0882,68.3827 17.2549,66.216 12,55.5C 10.8396,46.4689 14.3396,39.8023 22.5,35.5C 22.8333,35.8333 23.1667,36.1667 23.5,36.5C 17.4842,42.1109 15.9842,48.7776 19,56.5C 20.7432,58.8715 23.0766,60.2048 26,60.5C 29.7885,59.8495 33.2885,58.5161 36.5,56.5 Z"/></g>
<g><path style="opacity:1" fill="#111111" d="M 137.5,27.5 C 137.167,27.5 136.833,27.5 136.5,27.5C 132.091,24.1521 128.591,24.8188 126,29.5C 124.919,23.9853 127.086,20.652 132.5,19.5C 135.216,19.9606 137.882,20.6273 140.5,21.5C 142.323,20.1551 144.323,19.6551 146.5,20C 143.335,22.3347 140.335,24.8347 137.5,27.5 Z"/></g>
<g><path style="opacity:1" fill="#0e0e0e" d="M 136.5,54.5 C 138.167,54.5 139.833,54.5 141.5,54.5C 143.216,54.6287 144.883,54.962 146.5,55.5C 146.56,56.0431 146.893,56.3764 147.5,56.5C 148.833,45.8333 148.833,35.1667 147.5,24.5C 146.893,24.6236 146.56,24.9569 146.5,25.5C 145.671,33.3228 145.171,41.3228 145,49.5C 143.624,50.7051 142.458,52.0384 141.5,53.5C 140.507,45.0161 140.174,36.3494 140.5,27.5C 143.39,24.4474 146.724,21.9474 150.5,20C 160.694,19.2274 163.194,23.3941 158,32.5C 155.913,33.7938 153.746,34.9605 151.5,36C 154.822,36.0589 157.656,37.2256 160,39.5C 160.667,44.5 160.667,49.5 160,54.5C 156.333,58.1667 152.667,61.8333 149,65.5C 142.417,59.8081 135.417,59.1415 128,63.5C 127.333,64.8333 127.333,66.1667 128,67.5C 130.996,68.9106 134.163,69.9106 137.5,70.5C 131.259,72.7131 127.259,70.7131 125.5,64.5C 126.806,58.6646 130.473,55.3312 136.5,54.5 Z"/></g>
<g><path style="opacity:1" fill="#0c0c0c" d="M 109.5,20.5 C 110.166,25.0166 110.833,29.6833 111.5,34.5C 112.107,34.3764 112.44,34.0431 112.5,33.5C 115.114,32.4552 117.78,31.9552 120.5,32C 122.405,33.8153 124.072,35.8153 125.5,38C 122.371,39.3988 119.371,41.0655 116.5,43C 118.623,46.9505 121.289,50.4505 124.5,53.5C 123.418,55.7837 121.752,56.9504 119.5,57C 116.627,53.4228 114.127,49.5894 112,45.5C 110.996,48.9926 111.496,52.1592 113.5,55C 109.841,58.5178 106.507,58.1844 103.5,54C 104,53.5 104.5,53 105,52.5C 105.168,42.1506 105.668,31.8173 106.5,21.5C 107.417,20.8728 108.417,20.5394 109.5,20.5 Z"/></g>
<g><path style="opacity:1" fill="#444444" d="M 109.5,20.5 C 109.56,19.9569 109.893,19.6236 110.5,19.5C 111.167,24.3167 111.834,28.9834 112.5,33.5C 112.44,34.0431 112.107,34.3764 111.5,34.5C 110.833,29.6833 110.166,25.0166 109.5,20.5 Z"/></g>
<g><path style="opacity:1" fill="#181818" d="M 71.5,21.5 C 74.1398,21.954 76.4732,23.1207 78.5,25C 74.9452,29.422 71.2785,29.422 67.5,25C 69.0931,24.0513 70.4264,22.8846 71.5,21.5 Z"/></g>
<g><path style="opacity:1" fill="#e9e9e9" d="M 149.5,23.5 C 154.617,24.6545 155.784,27.6545 153,32.5C 152,33.5 151,34.5 150,35.5C 149.501,31.5138 149.334,27.5138 149.5,23.5 Z"/></g>
<g><path style="opacity:1" fill="#e0e0e0" d="M 146.5,25.5 C 147.833,35.5 147.833,45.5 146.5,55.5C 144.883,54.962 143.216,54.6287 141.5,54.5C 141.5,54.1667 141.5,53.8333 141.5,53.5C 142.458,52.0384 143.624,50.7051 145,49.5C 145.171,41.3228 145.671,33.3228 146.5,25.5 Z"/></g>
<g><path style="opacity:1" fill="#818181" d="M 146.5,25.5 C 146.56,24.9569 146.893,24.6236 147.5,24.5C 148.833,35.1667 148.833,45.8333 147.5,56.5C 146.893,56.3764 146.56,56.0431 146.5,55.5C 147.833,45.5 147.833,35.5 146.5,25.5 Z"/></g>
<g><path style="opacity:1" fill="#5f5f5f" d="M 136.5,27.5 C 136.833,27.5 137.167,27.5 137.5,27.5C 137.825,35.0191 137.492,42.3524 136.5,49.5C 136.824,42.6457 136.491,35.979 135.5,29.5C 135.833,28.8333 136.167,28.1667 136.5,27.5 Z"/></g>
<g><path style="opacity:1" fill="#989898" d="M 140.5,27.5 C 140.174,36.3494 140.507,45.0161 141.5,53.5C 141.5,53.8333 141.5,54.1667 141.5,54.5C 139.833,54.5 138.167,54.5 136.5,54.5C 137.209,53.596 138.209,53.2627 139.5,53.5C 139.174,44.6506 139.507,35.9839 140.5,27.5 Z"/></g>
<g><path style="opacity:1" fill="#6c6c6c" d="M 31.5,27.5 C 32.5,27.8333 33.1667,28.5 33.5,29.5C 32.8333,38.1667 32.1667,46.8333 31.5,55.5C 31.5,46.8333 31.5,38.1667 31.5,29.5C 31.5,28.8333 31.5,28.1667 31.5,27.5 Z"/></g>
<g><path style="opacity:1" fill="#040404" d="M 135.5,29.5 C 136.491,35.979 136.824,42.6457 136.5,49.5C 134.871,50.6253 133.371,51.9586 132,53.5C 131.503,50.854 131.336,48.1873 131.5,45.5C 124.499,45.909 124.166,43.909 130.5,39.5C 131.314,37.2338 131.814,34.9005 132,32.5C 133.039,31.2899 134.206,30.2899 135.5,29.5 Z"/></g>
<g><path style="opacity:1" fill="#020202" d="M 31.5,29.5 C 31.5,38.1667 31.5,46.8333 31.5,55.5C 29.8712,56.6253 28.3712,57.9586 27,59.5C 26.3333,50.8333 26.3333,42.1667 27,33.5C 28.3712,31.9586 29.8712,30.6253 31.5,29.5 Z"/></g>
<g><path style="opacity:1" fill="#a1a1a1" d="M 35.5,30.5 C 35.56,29.9569 35.8933,29.6236 36.5,29.5C 37.8218,38.6582 37.8218,47.6582 36.5,56.5C 36.8264,47.6506 36.493,38.9839 35.5,30.5 Z"/></g>
<g><path style="opacity:1" fill="#101010" d="M 47.5,31.5 C 49.7468,31.9153 51.9135,32.5819 54,33.5C 56.3894,33.0369 58.7228,32.3703 61,31.5C 63.1199,32.473 64.9532,33.8064 66.5,35.5C 65.4514,37.1123 63.9514,38.1123 62,38.5C 60.0374,37.3746 58.204,36.0413 56.5,34.5C 55.8333,34.8333 55.1667,35.1667 54.5,35.5C 53.5041,41.4632 53.1707,47.4632 53.5,53.5C 55.1992,53.3398 56.8659,53.5065 58.5,54C 55.7919,55.0695 53.1253,56.2361 50.5,57.5C 48.8333,56.3333 47.1667,55.1667 45.5,54C 46,53.5 46.5,53 47,52.5C 47.6667,47.1667 47.6667,41.8333 47,36.5C 43.7909,34.5318 43.9576,32.8652 47.5,31.5 Z"/></g>
<g><path style="opacity:1" fill="#0f0f0f" d="M 71.5,31.5 C 74.2723,31.5952 76.2723,32.9285 77.5,35.5C 76.3791,41.1138 76.2124,46.7805 77,52.5C 78.9099,55.1638 78.0766,56.8304 74.5,57.5C 73.1861,56.6872 72.0195,55.6872 71,54.5C 71.0711,47.957 70.2378,41.6237 68.5,35.5C 69.5244,34.1482 70.5244,32.8149 71.5,31.5 Z"/></g>
<g><path style="opacity:1" fill="#0e0e0e" d="M 164.5,31.5 C 166.484,31.3832 168.15,32.0499 169.5,33.5C 170.497,40.1335 170.83,46.8002 170.5,53.5C 172.262,53.6427 173.929,53.3094 175.5,52.5C 176.833,47.1667 176.833,41.8333 175.5,36.5C 174.692,36.1924 174.025,35.6924 173.5,35C 175.167,33.8333 176.833,32.6667 178.5,31.5C 180.389,32.604 182.055,33.9373 183.5,35.5C 182.268,38.3004 181.601,41.3004 181.5,44.5C 181.371,48.3195 182.371,51.6529 184.5,54.5C 183.167,55.5 181.833,56.5 180.5,57.5C 178.571,56.6198 176.737,55.6198 175,54.5C 172.54,55.5979 170.04,56.5979 167.5,57.5C 165.664,56.081 163.664,54.9143 161.5,54C 162.416,53.6258 163.25,53.1258 164,52.5C 164.667,47.1667 164.667,41.8333 164,36.5C 160.791,34.5318 160.958,32.8652 164.5,31.5 Z"/></g>
<g><path style="opacity:1" fill="#131313" d="M 94.5,31.5 C 97.5235,31.5175 100.19,32.5175 102.5,34.5C 100.953,36.1936 99.1199,37.527 97,38.5C 94.4101,36.727 91.5767,35.727 88.5,35.5C 88.1734,40.2137 88.5067,44.8804 89.5,49.5C 92.1667,50.8333 94.8333,52.1667 97.5,53.5C 99.0778,52.3595 100.744,51.8595 102.5,52C 99.3272,54.0872 95.9939,55.9205 92.5,57.5C 88.5493,55.1238 84.216,53.9571 79.5,54C 80.3333,53.1667 81.1667,52.3333 82,51.5C 82.4994,45.8431 82.6661,40.1764 82.5,34.5C 86.9816,34.9661 90.9816,33.9661 94.5,31.5 Z"/></g>
<g><path style="opacity:1" fill="#f0f0f0" d="M 113.5,34.5 C 120.488,37.8585 120.154,40.5252 112.5,42.5C 111.121,39.533 111.454,36.8663 113.5,34.5 Z"/></g>
<g><path style="opacity:1" fill="#f2f2f2" d="M 149.5,37.5 C 151.144,37.2865 152.644,37.6198 154,38.5C 154.495,40.4727 154.662,42.4727 154.5,44.5C 152.833,44.5 151.167,44.5 149.5,44.5C 149.5,42.1667 149.5,39.8333 149.5,37.5 Z"/></g>
<g><path style="opacity:1" fill="#f2f2f2" d="M 149.5,46.5 C 151.167,46.5 152.833,46.5 154.5,46.5C 154.5,47.8333 154.5,49.1667 154.5,50.5C 152.833,50.5 151.167,50.5 149.5,50.5C 149.5,49.1667 149.5,47.8333 149.5,46.5 Z"/></g>
<g><path style="opacity:1" fill="#181818" d="M 188.5,31.5 C 191.687,32.7518 195.02,33.4184 198.5,33.5C 201.685,33.3894 204.685,32.8894 207.5,32C 204.167,36 200.833,40 197.5,44C 199.577,44.1922 201.577,44.6922 203.5,45.5C 200.553,46.3214 197.553,46.8214 194.5,47C 194.043,47.414 193.709,47.914 193.5,48.5C 197.105,49.1799 200.605,50.1799 204,51.5C 205.261,51.2409 206.261,50.5742 207,49.5C 205.91,52.7852 203.743,55.4519 200.5,57.5C 199.692,57.1924 199.025,56.6924 198.5,56C 193.996,55.6596 189.663,55.4929 185.5,55.5C 188.022,52.8122 190.356,49.9789 192.5,47C 191.062,46.7811 189.729,46.2811 188.5,45.5C 193.666,45.7566 197.333,43.5899 199.5,39C 195.049,38.8702 190.716,38.2036 186.5,37C 186.043,36.586 185.709,36.086 185.5,35.5C 186.524,34.1482 187.524,32.8149 188.5,31.5 Z"/></g>
<g><path style="opacity:1" fill="#181818" d="M 211.5,31.5 C 214.687,32.7518 218.02,33.4184 221.5,33.5C 224.685,33.3894 227.685,32.8894 230.5,32C 227.167,36 223.833,40 220.5,44C 222.577,44.1922 224.577,44.6922 226.5,45.5C 223.553,46.3214 220.553,46.8214 217.5,47C 217.043,47.414 216.709,47.914 216.5,48.5C 220.105,49.1799 223.605,50.1799 227,51.5C 228.261,51.2409 229.261,50.5742 230,49.5C 228.91,52.7852 226.743,55.4519 223.5,57.5C 222.692,57.1924 222.025,56.6924 221.5,56C 216.996,55.6596 212.663,55.4929 208.5,55.5C 211.022,52.8122 213.356,49.9789 215.5,47C 214.062,46.7811 212.729,46.2811 211.5,45.5C 216.666,45.7566 220.333,43.5899 222.5,39C 218.049,38.8702 213.716,38.2036 209.5,37C 208.833,36.3333 208.167,35.6667 207.5,35C 209.324,34.34 210.657,33.1733 211.5,31.5 Z"/></g>
<g><path style="opacity:1" fill="#f3f3f3" d="M 149.5,52.5 C 151.167,52.5 152.833,52.5 154.5,52.5C 154.662,54.5273 154.495,56.5273 154,58.5C 152.413,59.727 151.079,59.3937 150,57.5C 149.506,55.8659 149.34,54.1992 149.5,52.5 Z"/></g>
</svg>